# xmcd
#
# Track frame offsets: 
#        150
#        6467
#        12225
#        12713
#        18238
#        33204
#        63414
#        67650
#        74469
#        79854
#        82132
#        87381
#        96869
#        111430
#        114801
#        122072
#        134373
#        142474
#        146217
#        153191
#        162541
#        165233
#        171285
#        182669
#        185871
#        189775
#        200877
#        217641
#        230379
#        236023
#        242987
#        248670
#        321785
#        336725
#        346682
#        350356
#        352064
#        354788
#
# Disc length: 4776 seconds
#
# Revision: 0
# Processed by: cddbd v1.5.2PL0 Copyright (c) Steve Scherf et al.
# Submitted via: ExactAudioCopy v0.95b4
#
DISCID=3312a626
DTITLE=The Beatles  - AB  Road - Complete Purple Chick Set v1.1 Jan.07
DTITLE=Various Artist - D2  FLAC
DYEAR=1900
DGENRE=
TTITLE0=Dialogue
TTITLE1=For You Blue 7.27
TTITLE2=For You Blue 7.27 continued
TTITLE3=For You Blue 7.28
TTITLE4=Improvisation 7.29
TTITLE5=Bo Diddley 7.30
TTITLE6=What The World Needs Now Is Love 7.31
TTITLE7=Instrumental 7.32
TTITLE8=First Call 7.33
TTITLE9=She Came In Through The Bathroom Window 7.34
TTITLE10=I've Got A Feeling 7.35
TTITLE11=I've Got A Feeling 7.36
TTITLE12=I've Got A Feeling 7.37
TTITLE13=I've Got A Feeling 7.38
TTITLE14=I've Got A Feeling 7.39
TTITLE15=I've Got A Feeling 7.40
TTITLE16=I've Got A Feeling 7.41
TTITLE17=I've Got A Feeling 7.42
TTITLE18=I've Got A Feeling 7.43
TTITLE19=I've Got A Feeling 7.44
TTITLE20=I've Got A Feeling 7.45
TTITLE21=I've Got A Feeling 7.46
TTITLE22=I've Got A Feeling 7.47
TTITLE23=Improvisation 7.48
TTITLE24=Maxwell's Silver Hammer 7.49
TTITLE25=Woman Where You Been So Long 7.50
TTITLE26=Oh Julie, Julia 7.51
TTITLE27=Oh! Darling 7.52
TTITLE28=The Long And Winding Road 7.53
TTITLE29=Maxwell's Silver Hammer 7.54
TTITLE30=Maxwell's Silver Hammer 7.55
TTITLE31=Maxwell's Silver Hammer 7.56
TTITLE32=Maxwell's Silver Hammer 7.57
TTITLE33=Maxwell's Silver Hammer 7.58
TTITLE34=Maxwell's Silver Hammer 7.59
TTITLE35=Rule, Britannia 7.60
TTITLE36=Improvisation 7.61
TTITLE37=Improvisation 7.62
EXTD=
EXTT0=
EXTT1=
EXTT2=
EXTT3=
EXTT4=
EXTT5=
EXTT6=
EXTT7=
EXTT8=
EXTT9=
EXTT10=
EXTT11=
EXTT12=
EXTT13=
EXTT14=
EXTT15=
EXTT16=
EXTT17=
EXTT18=
EXTT19=
EXTT20=
EXTT21=
EXTT22=
EXTT23=
EXTT24=
EXTT25=
EXTT26=
EXTT27=
EXTT28=
EXTT29=
EXTT30=
EXTT31=
EXTT32=
EXTT33=
EXTT34=
EXTT35=
EXTT36=
EXTT37=
PLAYORDER=
